<?xml version="1.0" encoding="UTF-8"?>
<svg width="131px" height="131px" viewBox="0 0 131 131" version="1.1" xmlns="http://www.w3.org/2000/svg" xmlns:xlink="http://www.w3.org/1999/xlink">
    <title>Group 13</title>
    <g id="landing" stroke="none" stroke-width="1" fill="none" fill-rule="evenodd">
        <g id="web" transform="translate(-1023.000000, -1720.000000)">
            <g id="Group-13" transform="translate(1023.000000, 1720.000000)">
                <circle id="Oval-Copy-11" fill="#EBEBEB" cx="65.5" cy="65.5" r="65.5"></circle>
                <g id="flash" transform="translate(35.000000, 26.000000)">
                    <circle id="Oval" fill="#000000" cx="32" cy="39" r="32"></circle>
                    <circle id="Oval-Copy-13" fill="#EBEBEB" cx="32" cy="39" r="21"></circle>
                    <circle id="Oval-Copy-24" fill="#000000" cx="32" cy="38.5" r="8.5"></circle>
                    <path d="M66.5910375,19.781223 L54.9289334,19.781223 L64.9962638,2.10387894 C65.2454242,1.66845475 65.2439564,1.1341537 64.9922273,0.700194355 C64.7390303,0.266601198 64.2752029,0 63.7728455,0 L46.8636935,0 C46.2571217,0 45.718803,0.387450595 45.527621,0.961302373 L37.073045,26.3675176 C36.9284658,26.7959839 37.0014893,27.2683953 37.2656948,27.634972 C37.5313681,28.0019148 37.9566656,28.2187114 38.4091175,28.2187114 L50.3633155,28.2187114 L42.7508946,46.0403423 C42.4782491,46.6735201 42.7068603,47.411068 43.2903142,47.7802081 C43.8642271,48.1464185 44.6351935,48.0501052 45.098287,47.5278891 L67.643823,22.1216739 C68.0126098,21.7082223 68.1036139,21.11606 67.8764707,20.6121544 C67.6493273,20.106784 67.1458691,19.781223 66.5910375,19.781223 Z" id="Path" fill="#F7B500" fill-rule="nonzero"></path>
                </g>
            </g>
        </g>
    </g>
</svg>