<?xml version="1.0" encoding="UTF-8"?>
<svg width="131px" height="131px" viewBox="0 0 131 131" version="1.1" xmlns="http://www.w3.org/2000/svg" xmlns:xlink="http://www.w3.org/1999/xlink">
    <title>Group 12</title>
    <g id="landing" stroke="none" stroke-width="1" fill="none" fill-rule="evenodd">
        <g id="web" transform="translate(-609.000000, -1720.000000)">
            <g id="Group-12" transform="translate(609.000000, 1720.000000)">
                <circle id="Oval-Copy-10" fill="#EBEBEB" cx="65.5" cy="65.5" r="65.5"></circle>
                <g id="Group-5" transform="translate(55.000000, 63.845466) rotate(-30.000000) translate(-55.000000, -63.845466) translate(29.000000, 33.845466)" fill="#000000">
                    <path d="M3.60373149,17.1218158 C7.93511394,6.39163159 16.437469,-0.426047793 21.7091458,0.0207044808 C30.1415557,0.735315491 19.8332516,12.1486943 21.6303876,21.0655302 L15.5785673,22.3336925 L22.6611408,24.3899026 C23.4933122,26.38467 24.5229667,27.7488985 25.606671,29.0730499 L25.9526259,29.4931026 C26.3179757,29.9348742 26.687663,30.3791522 27.0563389,30.8479564 L18.5655294,38.8805972 L30.2522915,36.4534638 C30.7195643,37.6845912 31.1481053,39.1206466 31.5200581,40.8351374 C33.2030432,48.5927391 39.8482914,54.2845166 51.4558029,57.9104699 C22.5751333,61.9768354 6.13394443,56.2850579 2.13223619,40.8351374 C1.85085508,39.7487723 1.62009576,38.6729795 1.43671081,37.6092296 L3.32096913,38.1700116 L1.1622372,35.7499564 C0.417172421,29.6869368 1.19073444,24.0549466 2.85611334,19.1378444 L6.32096913,20.1700116 Z" id="Combined-Shape"></path>
                </g>
                <path d="M88.5719983,76.1816761 C85.64744,77.6705708 86.8035355,77.1277449 92.0402849,74.5531984 C97.2770342,71.9786519 104.930273,67.4609191 115,61" id="Path-4" stroke="#000000" stroke-linecap="round"></path>
                <path d="M35.8034627,44 C33.1671302,61.3171012 37.0185748,73.3667187 47.3577965,80.1488526 C57.6970182,86.9309865 69.9110861,86.601812 84,79.1613291" id="Path-5" stroke="#FFFFFF" stroke-linecap="round"></path>
                <circle id="Oval" fill="#F7B500" cx="91.5" cy="46.5" r="7.5"></circle>
            </g>
        </g>
    </g>
</svg>