<?xml version="1.0" encoding="UTF-8"?>
<svg width="131px" height="131px" viewBox="0 0 131 131" version="1.1" xmlns="http://www.w3.org/2000/svg" xmlns:xlink="http://www.w3.org/1999/xlink">
    <title>Group 11</title>
    <g id="landing" stroke="none" stroke-width="1" fill="none" fill-rule="evenodd">
        <g id="web" transform="translate(-216.000000, -1720.000000)">
            <g id="Group-11" transform="translate(216.000000, 1720.000000)">
                <circle id="Oval-Copy-9" fill="#EBEBEB" cx="65.5" cy="65.5" r="65.5"></circle>
                <g id="steering-wheel-copy" transform="translate(29.000000, 29.000000)" fill-rule="nonzero">
                    <path d="M36.5,0 C16.3423047,0 0,16.3423047 0,36.5 C0,56.6576953 16.3423047,73 36.5,73 C56.6576953,73 73,56.6576953 73,36.5 C73,16.3423047 56.6576953,0 36.5,0 Z M36.7138672,64.6591797 C21.1869668,64.6591797 8.5546875,52.027043 8.5546875,36.5 C8.5546875,20.972957 21.1869668,8.34082031 36.7138672,8.34082031 C52.2407676,8.34082031 64.8730469,20.972957 64.8730469,36.5 C64.8730469,52.027043 52.2407676,64.6591797 36.7138672,64.6591797 Z" id="XMLID_108_" fill="#000000"></path>
                    <path d="M60.5301851,40.625985 C60.8374955,39.1843753 61,37.6947892 61,36.1703112 C61,34.0564864 60.6887403,32.0093108 60.1090776,30.0653117 L57.0460657,29.3584772 C43.4075373,26.2138409 29.1536567,26.2138409 15.5149821,29.3584772 L12.9225164,29.9568195 C12.3219373,31.9329846 12,34.017233 12,36.1703112 C12,37.7069196 12.1648448,39.2082272 12.4769821,40.660468 C22.2142328,41.5112317 29.8775403,49.0070022 30.1927493,58.2315595 C32.205991,58.7317682 34.3200119,59 36.5,59 C38.5207015,59 40.4845045,58.7692498 42.364203,58.3373257 C42.6279254,48.9235887 50.5442776,41.2856607 60.5301851,40.625985 L60.5301851,40.625985 Z M36.280597,45.7110767 C32.356209,45.7110767 29.1634567,42.7359934 29.1634567,39.0791543 C29.1634567,35.4223152 32.356209,32.4473682 36.280597,32.4473682 C40.2049851,32.4473682 43.397591,35.4224515 43.397591,39.0792906 C43.397591,42.7361297 40.2049851,45.7110767 36.280597,45.7110767 Z" id="XMLID_128_" fill="#F7B500"></path>
                </g>
            </g>
        </g>
    </g>
</svg>