<?xml version="1.0" encoding="UTF-8"?>
<svg width="131px" height="131px" viewBox="0 0 131 131" version="1.1" xmlns="http://www.w3.org/2000/svg" xmlns:xlink="http://www.w3.org/1999/xlink">
    <title>Group 14</title>
    <g id="landing" stroke="none" stroke-width="1" fill="none" fill-rule="evenodd">
        <g id="web" transform="translate(-1413.000000, -1720.000000)">
            <g id="Group-14" transform="translate(1413.000000, 1720.000000)">
                <circle id="Oval-Copy-12" fill="#EBEBEB" cx="65.5" cy="65.5" r="65.5"></circle>
                <rect id="Rectangle-Copy-23" fill="#000000" x="75" y="32" width="9" height="14" rx="4.5"></rect>
                <rect id="Rectangle" fill="#000000" x="37" y="40" width="59" height="59" rx="8"></rect>
                <rect id="Rectangle" fill="#F7B500" x="48" y="52" width="9" height="9" rx="4.5"></rect>
                <rect id="Rectangle-Copy-17" fill="#EBEBEB" x="48" y="65" width="9" height="9" rx="4.5"></rect>
                <rect id="Rectangle-Copy-20" fill="#EBEBEB" x="48" y="78" width="9" height="9" rx="4.5"></rect>
                <rect id="Rectangle-Copy-8" fill="#EBEBEB" x="62" y="52" width="9" height="9" rx="4.5"></rect>
                <rect id="Rectangle-Copy-18" fill="#EBEBEB" x="62" y="65" width="9" height="9" rx="4.5"></rect>
                <rect id="Rectangle-Copy-21" fill="#EBEBEB" x="62" y="78" width="9" height="9" rx="4.5"></rect>
                <rect id="Rectangle-Copy-16" fill="#EBEBEB" x="75" y="52" width="9" height="9" rx="4.5"></rect>
                <rect id="Rectangle-Copy-19" fill="#EBEBEB" x="75" y="65" width="9" height="9" rx="4.5"></rect>
                <rect id="Rectangle-Copy-22" fill="#EBEBEB" x="75" y="78" width="9" height="9" rx="4.5"></rect>
            </g>
        </g>
    </g>
</svg>