<?xml version="1.0" encoding="UTF-8"?>
<svg width="61px" height="60px" viewBox="0 0 61 60" version="1.1" xmlns="http://www.w3.org/2000/svg" xmlns:xlink="http://www.w3.org/1999/xlink">
    <title>Group 8 Copy</title>
    <g id="landing" stroke="none" stroke-width="1" fill="none" fill-rule="evenodd">
        <g id="web" transform="translate(-162.000000, -53.000000)" fill-rule="nonzero">
            <g id="Group-8-Copy" transform="translate(162.465296, 53.000000)">
                <path d="M30.0347036,0.825877008 C13.7428677,0.825877008 0.534703619,14.0340411 0.534703619,30.325877 C0.534703619,46.6177129 13.7428677,59.825877 30.0347036,59.825877 C46.3265396,59.825877 59.5347036,46.6177129 59.5347036,30.325877 C59.5347036,14.0340411 46.3265396,0.825877008 30.0347036,0.825877008 Z M30.0347036,52.825877 C17.6282606,52.825877 7.53470362,42.732434 7.53470362,30.325877 C7.53470362,17.91932 17.6282606,7.82587701 30.0347036,7.82587701 C42.4411467,7.82587701 52.5347036,17.91932 52.5347036,30.325877 C52.5347036,42.732434 42.4411467,52.825877 30.0347036,52.825877 Z" id="XMLID_108_" fill="#F7B500"></path>
                <path d="M14.5347036,42.1730051 C15.1915167,43.1736204 15.9576444,44.1203338 16.8355223,44.9956905 C18.05281,46.209419 19.4072888,47.209816 20.8537611,48 L22.9886805,46.6829941 C32.4932077,40.8173016 40.5339809,32.7998637 46.4168283,23.3228372 L47.5347036,21.521079 C46.7354957,20.0485702 45.7168616,18.6707295 44.4769959,17.4344353 C43.5921058,16.55214 42.6345668,15.7828217 41.6221943,15.1245254 C35.6393787,20.1129744 26.9998809,20.1193725 21.5099824,15 C20.0862383,15.8451803 18.7392306,16.8802456 17.5094596,18.1064168 C16.3695748,19.2430244 15.3946522,20.4801077 14.5830226,21.7853968 C19.8552812,27.3390287 19.7879823,36.1774106 14.5347036,42.1730051 L14.5347036,42.1730051 Z M25.2858438,25.6134162 C27.4996394,23.4060543 31.0139484,23.3184838 33.1197924,25.4182086 C35.2256286,27.5179412 35.1377247,31.0219731 32.9239381,33.229344 C30.7101425,35.436706 27.195916,35.5241942 25.0900721,33.4244694 C22.9842359,31.3247368 23.0720572,27.8207872 25.2858438,25.6134162 Z" id="XMLID_128_" fill="#000000"></path>
            </g>
        </g>
    </g>
</svg>