<?xml version="1.0" encoding="UTF-8"?>
<svg width="36px" height="36px" viewBox="0 0 36 36" version="1.1" xmlns="http://www.w3.org/2000/svg" xmlns:xlink="http://www.w3.org/1999/xlink">
    <title>Group 8</title>
    <g id="landing" stroke="none" stroke-width="1" fill="none" fill-rule="evenodd">
        <g id="web" transform="translate(-1425.000000, -78.000000)">
            <g id="Group-8" transform="translate(1425.000000, 78.000000)">
                <circle id="Oval-Copy-5" fill="#000000" cx="18" cy="18" r="18"></circle>
                <g id="instagram" transform="translate(12.000000, 11.000000)" fill="#FFFFFF" fill-rule="nonzero">
                    <path d="M6.5,4 C5.12151955,4 4,5.12151955 4,6.5 C4,7.87848045 5.12151955,9 6.5,9 C7.87848045,9 9,7.87848045 9,6.5 C9,5.12151955 7.87857301,4 6.5,4 Z" id="Path"></path>
                    <path d="M11.6901016,1.30989838 C10.8453674,0.465164172 9.72659302,0 8.53977968,0 L4.46022032,0 C3.27340698,0 2.15453339,0.465164172 1.30989838,1.30989838 C0.465164172,2.15453339 0,3.27340698 0,4.46022032 L0,8.53968047 C0,9.72659302 0.465164172,10.8454666 1.30989838,11.6901016 C2.15453339,12.5348358 3.27340698,13 4.46022032,13 L8.53977968,13 C9.72659302,13 10.8454666,12.5348358 11.6901016,11.6901016 C12.5347366,10.8454666 13,9.72659302 13,8.53968047 L13,4.46022032 C13,3.27340698 12.5347366,2.15453339 11.6901016,1.30989838 Z M6.5,10 C4.57009628,10 3,8.42990372 3,6.5 C3,4.57009628 4.57009628,3 6.5,3 C8.42990372,3 10,4.57009628 10,6.5 C10,8.42990372 8.42990372,10 6.5,10 L6.5,10 Z M10.8535156,2.85364583 C10.7605469,2.94661457 10.6315104,3 10.5,3 C10.3683594,3 10.2395833,2.94661457 10.1466146,2.85364583 C10.0532552,2.76054687 10,2.6316406 10,2.5 C10,2.36835937 10.0532552,2.2393229 10.1466146,2.14635417 C10.2395833,2.0532552 10.3682292,2 10.5,2 C10.6315104,2 10.7605469,2.0532552 10.8535156,2.14635417 C10.9466146,2.2393229 11,2.36835937 11,2.5 C11,2.6315104 10.9466146,2.76054687 10.8535156,2.85364583 Z" id="Shape"></path>
                </g>
            </g>
        </g>
    </g>
</svg>