<?xml version="1.0" encoding="UTF-8"?>
<svg width="87px" height="86px" viewBox="0 0 87 86" version="1.1" xmlns="http://www.w3.org/2000/svg" xmlns:xlink="http://www.w3.org/1999/xlink">
    <title>Group 9</title>
    <g id="landing" stroke="none" stroke-width="1" fill="none" fill-rule="evenodd">
        <g id="web" transform="translate(-277.000000, -1269.000000)">
            <g id="Group-9" transform="translate(277.000000, 1269.000000)">
                <circle id="Oval-Copy-8" fill="#EAEAEA" cx="43" cy="43" r="43"></circle>
                <g id="puzzle" transform="translate(22.000000, 25.000000)" fill="#000000" fill-rule="nonzero">
                    <path d="M7.55366687,19 L7.55366687,17.6567077 C7.55366687,15.3910478 9.44040286,13.5478137 11.7595344,13.5478137 C14.0786659,13.5478137 15.9654019,15.3910478 15.9654019,17.6567077 L15.9654019,19 L20.255872,19 L20.255872,18.9713168 L20.255872,12.409255 L24.0573292,12.409255 C25.0385096,12.409255 25.8367347,11.6294343 25.8367347,10.6709558 C25.8367347,9.7123192 25.0385096,8.93249852 24.0573292,8.93249852 L20.255872,8.93249852 L20.255872,0 L0.836734694,0 L0.836734694,19 L7.55366687,19 Z" id="XMLID_717_"></path>
                    <path d="M35.1197808,22 L35.1197808,23.3432923 C35.1197808,23.4848911 35.1124205,23.6248305 35.0980234,23.7627945 C34.8822294,25.8320968 33.0880976,27.4521863 30.9138997,27.4521863 C28.5947606,27.4521863 26.7080186,25.6089522 26.7080186,23.3432923 L26.7080186,22 L22.4176154,22 L22.4176154,22.0286832 L22.4176154,28.590666 L18.6161459,28.590666 C17.6349624,28.590666 16.8367347,29.3704867 16.8367347,30.3290442 C16.8367347,31.2876018 17.6349624,32.0674225 18.6161459,32.0674225 L22.4176154,32.0674225 L22.4176154,41 L41.8367347,41 L41.8367347,22 L35.1197808,22 Z" id="XMLID_718_"></path>
                    <path d="M14.2647789,17.7736729 L14.2647789,21.6435046 L20.8367347,21.6435046 L20.8367347,25.9200718 L19.5605822,25.9200718 C17.3073335,25.9200718 15.419932,27.736071 15.3771192,30.0312037 C15.3332777,32.3797885 17.1958304,34.3047073 19.4914171,34.3047073 L20.8367347,34.3047073 L20.8367347,41 L1.83673469,41 L1.83673469,21.6435046 L10.7827012,21.6435046 L10.7827012,17.7736729 C10.7827012,16.7941217 11.5621941,16 12.5237005,16 C13.4852861,16 14.2647789,16.7941217 14.2647789,17.7736729 Z" id="XMLID_33_"></path>
                </g>
                <circle id="Oval-Copy-27" fill="#F7B500" cx="77" cy="15" r="10"></circle>
            </g>
        </g>
    </g>
</svg>