<?xml version="1.0" encoding="UTF-8"?>
<svg width="87px" height="86px" viewBox="0 0 87 86" version="1.1" xmlns="http://www.w3.org/2000/svg" xmlns:xlink="http://www.w3.org/1999/xlink">
    <title>Group 7</title>
    <g id="landing" stroke="none" stroke-width="1" fill="none" fill-rule="evenodd">
        <g id="web" transform="translate(-277.000000, -981.000000)">
            <g id="Group-7" transform="translate(277.000000, 981.000000)">
                <circle id="Oval-Copy-4" fill="#EAEAEA" cx="43" cy="43" r="43"></circle>
                <g id="flag-(1)" transform="translate(23.000000, 23.000000)" fill="#000000" fill-rule="nonzero">
                    <path d="M24.8207691,22.0536739 C28.3693057,19.3882335 33.1367327,19.0399942 37.0318431,21.162163 L39.8297712,22.6928703 L39.8329384,5.13633342 L36.2626844,3.18191959 C32.92725,1.36389203 28.8439219,1.66212312 25.8057448,3.94613684 C22.2617327,6.61157713 17.4979252,6.95981654 13.6073393,4.83764774 L10.8329384,3.30739486 L10.8329384,20.8639319 L14.3819274,22.817891 C17.7110274,24.6363733 21.7893787,24.3376876 24.8207691,22.0536739 Z" id="Path"></path>
                    <path d="M5.00546813,0 L5.00546813,47.3744076 L1.63598567,47.3744076 C1.19233784,47.3744076 0.832938389,47.7381701 0.832938389,48.1872038 C0.832938389,48.6362375 1.19233784,49 1.63598567,49 L12.0298911,49 C12.4730908,49 12.8329384,48.6362375 12.8329384,48.1872038 C12.8329384,47.7381701 12.4730908,47.3744076 12.0298911,47.3744076 L8.67654141,47.3744076 L8.67654141,0 L5.00546813,0 Z" id="Path"></path>
                </g>
                <circle id="Oval-Copy-15" fill="#F7B500" cx="77" cy="17" r="10"></circle>
            </g>
        </g>
    </g>
</svg>