<?xml version="1.0" encoding="UTF-8"?>
<svg width="86px" height="86px" viewBox="0 0 86 86" version="1.1" xmlns="http://www.w3.org/2000/svg" xmlns:xlink="http://www.w3.org/1999/xlink">
    <title>Group 10</title>
    <g id="landing" stroke="none" stroke-width="1" fill="none" fill-rule="evenodd">
        <g id="web" transform="translate(-997.000000, -1269.000000)">
            <g id="Group-10" transform="translate(997.000000, 1269.000000)">
                <circle id="Oval-Copy-7" fill="#EAEAEA" cx="43" cy="43" r="43"></circle>
                <g id="transmission" transform="translate(20.000000, 19.000000)" fill="#000000" fill-rule="nonzero">
                    <path d="M22.8389831,0 C8.53997737,0 0.338983051,7.44161979 0.338983051,20.4166667 C0.338983051,34.220375 9.37989214,49 22.8389831,49 C36.298074,49 45.3389831,34.220375 45.3389831,20.4166667 C45.3389831,7.44161979 37.1379887,0 22.8389831,0 Z M22.8389831,8.16666667 C23.9686564,8.16666667 24.8844376,9.08075197 24.8844376,10.2083333 C24.8844376,11.3359147 23.9686564,12.25 22.8389831,12.25 C21.7093097,12.25 20.7935285,11.3359147 20.7935285,10.2083333 C20.7935285,9.08075197 21.7093097,8.16666667 22.8389831,8.16666667 Z M10.5662558,8.16666667 C11.6959291,8.16666667 12.6117103,9.08075197 12.6117103,10.2083333 C12.6117103,11.3359147 11.6959291,12.25 10.5662558,12.25 C9.43658243,12.25 8.52080123,11.3359147 8.52080123,10.2083333 C8.52080123,9.08075197 9.43658243,8.16666667 10.5662558,8.16666667 Z M22.8389831,40.8333333 C21.7093097,40.8333333 20.7935285,39.919248 20.7935285,38.7916667 C20.7935285,37.6640853 21.7093097,36.75 22.8389831,36.75 C23.9686564,36.75 24.8844376,37.6640853 24.8844376,38.7916667 C24.8844376,39.919248 23.9686564,40.8333333 22.8389831,40.8333333 Z M35.1117103,40.8333333 C33.982037,40.8333333 33.0662558,39.919248 33.0662558,38.7916667 C33.0662558,37.6640853 33.982037,36.75 35.1117103,36.75 C36.2413837,36.75 37.1571649,37.6640853 37.1571649,38.7916667 C37.1571649,39.919248 36.2413837,40.8333333 35.1117103,40.8333333 Z M37.1571649,34.7083333 L33.0662558,34.7083333 L33.0662558,26.5416667 L24.8844376,26.5416667 L24.8844376,34.7083333 L20.7935285,34.7083333 L20.7935285,26.5416667 L10.5662558,26.5416667 C9.43658243,26.5416667 8.52080123,25.6275814 8.52080123,24.5 L8.52080123,14.2916667 L12.6117103,14.2916667 L12.6117103,22.4583333 L20.7935285,22.4583333 L20.7935285,14.2916667 L24.8844376,14.2916667 L24.8844376,22.4583333 L33.0662558,22.4583333 L33.0662558,14.2916667 L37.1571649,14.2916667 L37.1571649,34.7083333 Z M35.1117103,12.25 C33.982037,12.25 33.0662558,11.3359147 33.0662558,10.2083333 C33.0662558,9.08075197 33.982037,8.16666667 35.1117103,8.16666667 C36.2413837,8.16666667 37.1571649,9.08075197 37.1571649,10.2083333 C37.1571649,11.3359147 36.2413837,12.25 35.1117103,12.25 Z" id="Shape"></path>
                </g>
                <circle id="Oval-Copy-26" fill="#F7B500" cx="76" cy="15" r="10"></circle>
            </g>
        </g>
    </g>
</svg>