<?xml version="1.0" encoding="UTF-8"?>
<svg width="86px" height="86px" viewBox="0 0 86 86" version="1.1" xmlns="http://www.w3.org/2000/svg" xmlns:xlink="http://www.w3.org/1999/xlink">
    <title>Group 8</title>
    <g id="landing" stroke="none" stroke-width="1" fill="none" fill-rule="evenodd">
        <g id="web" transform="translate(-997.000000, -981.000000)">
            <g id="Group-8" transform="translate(997.000000, 981.000000)">
                <circle id="Oval-Copy-3" fill="#EAEAEA" cx="43" cy="43" r="43"></circle>
                <g id="recovery-arrow" transform="translate(25.000000, 24.000000)" fill="#030104" fill-rule="nonzero">
                    <path d="M18.2720379,0.505074569 C18.2567896,0.505074569 18.2506903,0.505074569 18.244591,0.505074569 C18.2323923,0.505074569 18.2323923,0.505074569 18.2293427,0.505074569 C18.2293427,0.505074569 18.2293427,0.505074569 18.2247682,0.505074569 L18.2247682,0.505074569 C18.2201937,0.505074569 18.2140944,0.505074569 18.2079951,0.505074569 C18.2049454,0.505074569 18.2049454,0.505074569 18.2049454,0.505074569 C18.2049454,0.505074569 18.2049454,0.505074569 18.1988461,0.505074569 C18.1576757,0.495865166 18.145477,0.502004768 18.1149804,0.502004768 C13.2309499,0.502004768 8.47957964,2.45132832 4.96789615,5.878761 L1.10702658,1.93253198 C0.919472491,1.74834392 0.635854111,1.69001771 0.404079951,1.78825133 C0.16163198,1.89262456 0,2.12592943 0,2.39300211 L0,15.206351 C0,15.5670526 0.29124253,15.8586836 0.645003091,15.8586836 L13.2187513,15.8586836 C13.2263754,15.8586836 13.2400989,15.8586836 13.2492479,15.8586836 C13.6060581,15.8586836 13.8957758,15.5685875 13.8957758,15.206351 C13.8957758,14.9669065 13.7661653,14.7550902 13.5725118,14.6430425 L9.75891201,10.7582095 C12.0202349,8.56023207 14.970781,7.35687012 18.2064702,7.35687012 C24.8089841,7.39984733 30.1870596,12.8410694 30.1870596,19.5977011 C30.1367402,26.2376804 24.7281681,31.6420648 18.0189161,31.6420648 L18.0341644,38.5 L18.1271791,38.5 C28.4640016,38.5 36.9329075,30.0304194 37,19.5040722 C37,9.10512172 28.6073357,0.592563894 18.2720379,0.505074569 Z" id="_x3C_Group_x3E__5_"></path>
                </g>
                <circle id="Oval" fill="#F7B500" cx="76" cy="17" r="10"></circle>
            </g>
        </g>
    </g>
</svg>