<svg width="131" height="131" xmlns="http://www.w3.org/2000/svg"><g fill="none" fill-rule="evenodd"><circle fill="#EBEBEB" cx="65.5" cy="65.5" r="65.5"/><g transform="translate(35 26)"><circle fill="#000" cx="32" cy="39" r="32"/><circle fill="#EBEBEB" cx="32" cy="39" r="21"/><circle fill="#000" cx="32" cy="38.5" r="8.5"/><path d="M66.591 19.781H54.929L64.996 2.104A1.405 1.405 0 0063.773 0h-16.91c-.606 0-1.144.387-1.335.961l-8.455 25.407a1.403 1.403 0 001.336 1.85h11.954L42.751 46.04a1.409 1.409 0 002.347 1.488l22.546-25.406c.369-.414.46-1.006.232-1.51a1.41 1.41 0 00-1.285-.83z" fill="#F7B500" fill-rule="nonzero"/></g></g></svg>