<svg width="131" height="131" xmlns="http://www.w3.org/2000/svg"><g fill="none" fill-rule="evenodd"><circle fill="#EBEBEB" cx="65.5" cy="65.5" r="65.5"/><g fill-rule="nonzero"><path d="M65.5 29C45.342 29 29 45.342 29 65.5S45.342 102 65.5 102 102 85.658 102 65.5 85.658 29 65.5 29zm.214 64.66c-15.527 0-28.16-12.633-28.16-28.16 0-15.527 12.633-28.16 28.16-28.16 15.527 0 28.159 12.633 28.159 28.16 0 15.527-12.632 28.16-28.16 28.16z" fill="#000"/><path d="M89.53 69.626a21.346 21.346 0 00-.42-10.56l-3.064-.708a92.596 92.596 0 00-41.531 0l-2.592.599a21.343 21.343 0 00-.446 10.704c9.737.85 17.4 8.346 17.716 17.57 2.013.5 4.127.769 6.307.769 2.02 0 3.985-.23 5.864-.663.264-9.413 8.18-17.051 18.166-17.711zm-24.25 5.085c-3.924 0-7.117-2.975-7.117-6.632 0-3.657 3.193-6.632 7.118-6.632 3.924 0 7.117 2.975 7.117 6.632 0 3.657-3.193 6.632-7.117 6.632z" fill="#F7B500"/></g></g></svg>