<svg width="131" height="131" xmlns="http://www.w3.org/2000/svg"><g fill="none" fill-rule="evenodd"><circle fill="#EBEBEB" cx="65.5" cy="65.5" r="65.5"/><rect fill="#000" x="75" y="32" width="9" height="14" rx="4.5"/><rect fill="#000" x="37" y="40" width="59" height="59" rx="8"/><rect fill="#F7B500" x="48" y="52" width="9" height="9" rx="4.5"/><rect fill="#EBEBEB" x="48" y="65" width="9" height="9" rx="4.5"/><rect fill="#EBEBEB" x="48" y="78" width="9" height="9" rx="4.5"/><rect fill="#EBEBEB" x="62" y="52" width="9" height="9" rx="4.5"/><rect fill="#EBEBEB" x="62" y="65" width="9" height="9" rx="4.5"/><rect fill="#EBEBEB" x="62" y="78" width="9" height="9" rx="4.5"/><rect fill="#EBEBEB" x="75" y="52" width="9" height="9" rx="4.5"/><rect fill="#EBEBEB" x="75" y="65" width="9" height="9" rx="4.5"/><rect fill="#EBEBEB" x="75" y="78" width="9" height="9" rx="4.5"/></g></svg>