<svg width="131" height="131" xmlns="http://www.w3.org/2000/svg"><g fill="none" fill-rule="evenodd"><circle fill="#EBEBEB" cx="65.5" cy="65.5" r="65.5"/><path d="M29.165 63.89c-1.614-11.458 2.34-21.613 7.13-23.862 7.66-3.597 4.439 11.441 10.454 18.265l-4.607 4.124 7.161-1.76c1.718 1.31 3.292 1.977 4.893 2.582l.51.191c.537.2 1.08.4 1.633.622l-3.337 11.202 8.907-7.946c1.02.833 2.11 1.862 3.29 3.16 5.335 5.878 13.936 7.484 25.802 4.82-22.979 17.963-40.063 21.254-51.254 9.875a39.892 39.892 0 01-2.215-2.446l1.912-.457-3.08-1.016a37.38 37.38 0 01-6.838-15.233l3.516-.839z" fill="#000"/><path d="M88.572 76.182c-2.925 1.489-1.768.946 3.468-1.629C97.277 71.98 104.93 67.461 115 61" stroke="#000" stroke-linecap="round"/><path d="M35.803 44c-2.636 17.317 1.216 29.367 11.555 36.149S69.91 86.602 84 79.16" stroke="#FFF" stroke-linecap="round"/><circle fill="#F7B500" cx="91.5" cy="46.5" r="7.5"/></g></svg>