<svg width="36" height="36" xmlns="http://www.w3.org/2000/svg"><g fill="none" fill-rule="evenodd"><circle fill="#000" cx="18" cy="18" r="18"/><g fill="#FFF" fill-rule="nonzero"><path d="M18.5 15a2.503 2.503 0 00-2.5 2.5c0 1.378 1.122 2.5 2.5 2.5s2.5-1.122 2.5-2.5-1.121-2.5-2.5-2.5z"/><path d="M23.69 12.31A4.429 4.429 0 0020.54 11h-4.08a4.428 4.428 0 00-3.15 1.31A4.428 4.428 0 0012 15.46v4.08c0 1.187.465 2.305 1.31 3.15A4.428 4.428 0 0016.46 24h4.08a4.428 4.428 0 003.15-1.31A4.429 4.429 0 0025 19.54v-4.08a4.429 4.429 0 00-1.31-3.15zM18.5 21c-1.93 0-3.5-1.57-3.5-3.5s1.57-3.5 3.5-3.5 3.5 1.57 3.5 3.5-1.57 3.5-3.5 3.5zm4.354-7.146a.504.504 0 01-.707 0 .503.503 0 010-.708.502.502 0 01.707 0 .503.503 0 010 .708z"/></g></g></svg>