<svg width="86" height="86" xmlns="http://www.w3.org/2000/svg"><g fill="none" fill-rule="evenodd"><circle fill="#EAEAEA" cx="43" cy="43" r="43"/><path d="M42.839 19c-14.299 0-22.5 7.442-22.5 20.417 0 13.803 9.04 28.583 22.5 28.583s22.5-14.78 22.5-28.583c0-12.975-8.201-20.417-22.5-20.417zm0 8.167c1.13 0 2.045.914 2.045 2.041a2.044 2.044 0 01-2.045 2.042 2.044 2.044 0 01-2.045-2.042c0-1.127.915-2.041 2.045-2.041zm-12.273 0c1.13 0 2.046.914 2.046 2.041a2.044 2.044 0 01-2.046 2.042 2.044 2.044 0 01-2.045-2.042c0-1.127.916-2.041 2.045-2.041zM42.84 59.833a2.044 2.044 0 01-2.045-2.041c0-1.128.915-2.042 2.045-2.042s2.045.914 2.045 2.042a2.044 2.044 0 01-2.045 2.041zm12.273 0a2.044 2.044 0 01-2.046-2.041c0-1.128.916-2.042 2.046-2.042s2.045.914 2.045 2.042a2.044 2.044 0 01-2.045 2.041zm2.045-6.125h-4.09v-8.166h-8.183v8.166h-4.09v-8.166H30.566a2.044 2.044 0 01-2.045-2.042V33.292h4.09v8.166h8.183v-8.166h4.09v8.166h8.182v-8.166h4.091v20.416zM55.112 31.25a2.044 2.044 0 01-2.046-2.042c0-1.127.916-2.041 2.046-2.041s2.045.914 2.045 2.041a2.044 2.044 0 01-2.045 2.042z" fill="#000" fill-rule="nonzero"/><circle fill="#F7B500" cx="76" cy="15" r="10"/></g></svg>