<svg width="87" height="86" xmlns="http://www.w3.org/2000/svg"><g fill="none" fill-rule="evenodd"><circle fill="#EAEAEA" cx="43" cy="43" r="43"/><g fill="#000" fill-rule="nonzero"><path d="M29.554 44v-1.343c0-2.266 1.886-4.11 4.206-4.11 2.319 0 4.205 1.844 4.205 4.11V44h4.29v-6.591h3.802c.982 0 1.78-.78 1.78-1.738 0-.959-.798-1.739-1.78-1.739h-3.801V25h-19.42v19h6.718zm27.566 3v1.343c0 .142-.008.282-.022.42-.216 2.07-2.01 3.69-4.184 3.69-2.32 0-4.206-1.844-4.206-4.11V47h-4.29v6.591h-3.802c-.981 0-1.78.78-1.78 1.738 0 .959.799 1.738 1.78 1.738h3.802V66h19.419V47H57.12z"/><path d="M36.265 42.774v3.87h6.572v4.276H41.56a4.196 4.196 0 00-4.184 4.111c-.044 2.349 1.819 4.274 4.114 4.274h1.346V66h-19V46.644h8.946v-3.87c0-.98.78-1.774 1.74-1.774.962 0 1.742.794 1.742 1.774z"/></g><circle fill="#F7B500" cx="77" cy="15" r="10"/></g></svg>