<svg width="86" height="86" xmlns="http://www.w3.org/2000/svg"><g fill="none" fill-rule="evenodd"><circle fill="#EAEAEA" cx="43" cy="43" r="43"/><path d="M43.272 24.505h-.073c-.041-.01-.054-.003-.084-.003-4.884 0-9.635 1.95-13.147 5.377l-3.861-3.946a.655.655 0 00-.703-.145.659.659 0 00-.404.605v12.813a.65.65 0 00.645.653h12.604c.357 0 .647-.29.647-.653a.65.65 0 00-.323-.563l-3.814-3.885c2.261-2.198 5.212-3.401 8.447-3.401 6.603.043 11.981 5.484 11.981 12.24-.05 6.64-5.459 12.045-12.168 12.045l.015 6.858h.093c10.337 0 18.806-8.47 18.873-18.996 0-10.399-8.393-18.911-18.728-18.999z" fill="#030104" fill-rule="nonzero"/><circle fill="#F7B500" cx="76" cy="17" r="10"/></g></svg>