<svg width="87" height="86" xmlns="http://www.w3.org/2000/svg"><g fill="none" fill-rule="evenodd"><circle fill="#EAEAEA" cx="43" cy="43" r="43"/><path d="M47.82 45.054a11.31 11.31 0 0112.212-.892l2.798 1.53.003-17.556-3.57-1.954a9.68 9.68 0 00-10.457.764 11.288 11.288 0 01-12.199.892l-2.774-1.53v17.556l3.549 1.954a9.65 9.65 0 0010.439-.764zM28.005 23v47.374h-3.369a.808.808 0 00-.803.813c0 .45.36.813.803.813H35.03a.808.808 0 00.803-.813.808.808 0 00-.803-.813h-3.353V23h-3.672z" fill="#000" fill-rule="nonzero"/><circle fill="#F7B500" cx="77" cy="17" r="10"/></g></svg>