<svg width="61" height="60" xmlns="http://www.w3.org/2000/svg"><g fill="none"><path d="M30.5.826C14.208.826 1 14.034 1 30.326s13.208 29.5 29.5 29.5S60 46.618 60 30.326 46.792.826 30.5.826zm0 52c-12.406 0-22.5-10.094-22.5-22.5 0-12.407 10.094-22.5 22.5-22.5S53 17.919 53 30.326c0 12.406-10.094 22.5-22.5 22.5z" fill="#F7B500"/><path d="M15 42.173A17.693 17.693 0 0021.32 48l2.134-1.317a72.297 72.297 0 0023.428-23.36L48 21.52a17.721 17.721 0 00-5.913-6.397C36.105 20.114 27.465 20.12 21.975 15a20.442 20.442 0 00-4 3.106 20.42 20.42 0 00-2.927 3.68c5.273 5.553 5.205 14.391-.048 20.387zm10.751-16.56c2.214-2.207 5.728-2.295 7.834-.195s2.018 5.604-.196 7.811c-2.214 2.208-5.728 2.295-7.834.195-2.105-2.1-2.018-5.603.196-7.81z" fill="#000"/></g></svg>